<?xml version="1.0" standalone="no"?>
<!DOCTYPE svg PUBLIC "-//W3C//DTD SVG 20010904//EN"
 "http://www.w3.org/TR/2001/REC-SVG-20010904/DTD/svg10.dtd">
<svg version="1.0" xmlns="http://www.w3.org/2000/svg"
 width="1280.000000pt" height="720.000000pt" viewBox="0 0 1280.000000 720.000000"
 preserveAspectRatio="xMidYMid meet">

<g transform="translate(0.000000,720.000000) scale(0.100000,-0.100000)"
fill="#000000" stroke="none">
<path d="M7858 4295 c-3 -5 -9 -31 -13 -58 -4 -26 -16 -59 -28 -73 -11 -15
-22 -47 -25 -75 -4 -39 -8 -49 -22 -49 -36 0 -50 -12 -50 -41 l0 -29 98 0 c53
0 114 -4 135 -9 l37 -9 0 34 c0 30 -4 34 -39 45 -38 11 -39 13 -39 56 0 25 -8
55 -18 71 -10 15 -20 54 -23 87 -3 33 -9 56 -13 50z"/>
<path d="M6245 4123 c-4 -27 -15 -68 -26 -92 -19 -44 -19 -44 1 -66 25 -27 25
-47 0 -70 -29 -26 -25 -33 25 -46 25 -6 45 -12 45 -14 0 -1 -9 -28 -20 -61
-63 -181 -86 -362 -56 -426 10 -20 27 -39 39 -42 59 -16 208 107 270 222 41
75 77 188 84 261 l6 63 44 19 c23 10 43 21 43 25 0 3 -25 33 -55 65 -38 42
-56 70 -60 97 -12 72 -26 103 -43 100 -14 -3 -18 -18 -20 -81 -3 -74 -4 -78
-32 -92 -27 -14 -30 -20 -30 -68 0 -58 -5 -69 -37 -86 -15 -7 -30 -8 -47 -1
-29 11 -29 13 -26 88 1 40 -1 52 -13 52 -26 0 -50 67 -43 123 3 31 1 56 -5 64
-22 25 -37 13 -44 -34z"/>
<path d="M6456 4131 c-12 -5 -16 -10 -9 -14 13 -8 43 2 43 14 0 10 -8 10 -34
0z"/>
<path d="M6335 4120 c3 -5 13 -10 21 -10 8 0 14 5 14 10 0 6 -9 10 -21 10 -11
0 -17 -4 -14 -10z"/>
<path d="M10017 4103 c-4 -3 -7 -19 -7 -35 0 -27 2 -28 50 -28 43 0 49 2 43
18 -15 42 -64 68 -86 45z"/>
<path d="M9917 4075 c-15 -14 -27 -34 -27 -45 0 -12 -10 -21 -30 -25 -34 -7
-39 -28 -15 -61 10 -15 22 -20 38 -17 29 6 100 -29 133 -64 35 -37 58 -25 50
27 -7 43 6 54 24 21 15 -28 12 -59 -7 -91 -14 -25 -15 -35 -3 -87 25 -117 26
-114 -23 -168 -63 -71 -103 -147 -126 -245 -12 -47 -25 -92 -30 -101 -7 -13 2
-27 42 -65 94 -90 90 -88 118 -57 13 14 18 23 12 19 -8 -4 -13 -2 -13 5 0 9
-3 9 -14 -1 -8 -6 -12 -19 -9 -28 6 -14 4 -15 -8 -5 -8 7 -16 30 -17 52 -2 32
0 39 15 37 10 0 21 -10 25 -21 5 -16 6 -14 8 10 1 17 5 39 10 50 7 15 9 10 10
-25 1 -25 5 -54 10 -65 6 -14 8 -6 5 25 -5 41 -4 42 5 14 14 -45 42 -95 38
-69 -1 11 0 25 4 30 5 9 38 113 38 122 0 2 -4 3 -8 3 -5 0 -9 -6 -9 -13 0 -7
-8 -37 -19 -67 l-19 -53 -6 39 c-7 42 -3 57 10 35 6 -9 11 -4 19 17 6 17 8 33
5 36 -3 3 6 10 21 16 15 5 24 14 21 20 -3 5 2 21 11 36 15 22 15 27 3 36 -11
8 -10 9 3 4 10 -3 34 4 53 15 36 21 96 23 139 4 16 -7 17 -5 11 16 -9 28 -3
24 15 -10 8 -15 8 -21 1 -17 -15 9 -14 4 4 -30 20 -39 19 -44 -14 -107 -16
-30 -42 -90 -59 -133 -17 -44 -54 -130 -81 -193 -28 -63 -48 -118 -44 -124 3
-6 1 -7 -6 -3 -8 5 -11 1 -8 -16 2 -12 2 -17 0 -10 -4 10 -8 10 -19 1 -7 -6
-12 -14 -9 -18 2 -4 -13 -7 -35 -7 -26 1 -47 9 -66 26 -15 14 -24 19 -20 12 4
-7 1 -15 -8 -18 -9 -3 -13 -10 -10 -15 6 -10 -9 -12 -19 -2 -4 3 1 11 10 18
26 19 9 53 -62 130 -35 39 -65 73 -65 78 0 4 -13 25 -29 47 -27 37 -29 38 -35
17 -9 -36 -7 -42 10 -21 14 18 15 18 9 -6 -5 -19 -4 -22 4 -10 13 19 14 0 1
-20 -7 -11 -10 -11 -10 -2 0 7 -4 11 -9 8 -5 -4 -14 6 -20 21 -11 28 -11 28
-8 -7 2 -19 1 -46 -4 -60 -6 -21 -7 -22 -8 -5 -1 12 -6 26 -13 33 -6 6 -11 32
-11 58 0 36 -2 42 -8 25 -11 -29 20 -164 35 -152 7 6 12 -1 13 -22 1 -26 0
-28 -7 -12 -6 14 -9 15 -9 5 -1 -9 4 -21 11 -28 6 -6 12 -22 14 -34 5 -60 127
-392 139 -381 4 4 5 2 1 -4 -4 -7 2 -43 14 -79 54 -175 78 -435 44 -469 -11
-11 -25 -14 -38 -10 -23 7 -28 7 -66 2 -18 -3 -24 -9 -22 -22 3 -16 2 -17 -12
-2 -20 20 -20 27 1 27 13 0 14 3 5 12 -10 10 -17 10 -32 0 -11 -7 -20 -8 -20
-3 0 5 5 11 11 13 8 3 6 10 -5 20 -9 10 -12 19 -6 23 5 3 15 -3 22 -15 7 -11
17 -20 22 -20 5 0 15 -8 22 -17 10 -15 15 -16 26 -5 11 11 10 12 -7 6 -11 -4
-17 -4 -14 0 4 4 -19 30 -50 59 -31 29 -59 57 -63 62 -4 6 -8 -50 -8 -122 0
-73 3 -133 8 -134 4 0 16 -2 27 -4 79 -16 196 -26 268 -23 82 3 87 2 97 -20 5
-13 10 -30 10 -38 0 -11 9 -15 33 -13 65 4 88 -1 112 -27 28 -30 55 -80 55
-100 0 -7 24 -30 54 -51 30 -21 59 -48 65 -60 l10 -23 -192 -3 c-106 -1 132
-3 528 -3 396 0 680 2 630 3 -65 3 -94 8 -107 20 -29 26 -79 141 -73 166 7 27
-25 72 -58 83 -12 4 -39 22 -61 41 -21 20 -62 45 -90 58 -90 40 -309 116 -320
112 -8 -3 -9 36 -3 137 7 140 4 444 -6 541 l-6 50 9 -48 c5 -27 11 -52 14 -55
11 -10 130 -6 173 6 92 27 175 118 194 213 15 75 -7 153 -58 209 -28 32 -51
45 -111 63 -97 30 -112 48 -122 155 -5 44 -14 91 -20 104 -24 45 -74 88 -124
104 -96 32 -118 58 -130 154 -19 158 -65 206 -224 236 -142 26 -146 30 -173
168 -25 124 -42 140 -152 144 l-83 4 4 34 c4 30 2 34 -20 34 -13 0 -36 -11
-51 -25z m20 -51 c-3 -3 -12 -4 -19 -1 -8 3 -5 6 6 6 11 1 17 -2 13 -5z m289
-500 c19 -8 43 -14 54 -14 12 0 19 -4 16 -9 -8 -13 -56 -1 -96 24 -19 12 -40
24 -45 28 -6 3 -17 -3 -23 -14 -12 -18 -11 -19 7 -9 36 19 14 -12 -30 -44 -40
-28 -41 -30 -37 -77 4 -38 2 -46 -9 -42 -11 4 -13 17 -8 57 4 28 11 53 16 54
5 2 7 8 3 13 -3 5 7 31 23 58 l27 49 35 -30 c19 -17 49 -37 67 -44z m140 -40
c18 -14 18 -15 -4 -4 -12 6 -28 8 -34 4 -7 -4 -8 -3 -4 4 10 16 18 15 42 -4z
m63 -37 c20 -25 40 -83 32 -96 -6 -9 -8 -5 -8 12 0 14 -8 33 -17 42 -9 9 -14
21 -11 26 6 8 -9 13 -28 10 -5 -1 -6 3 -2 9 8 14 20 13 34 -3z m-104 -37 c3
-5 -1 -10 -10 -10 -9 0 -13 5 -10 10 3 6 8 10 10 10 2 0 7 -4 10 -10z m-275
-130 c4 0 11 6 14 13 3 6 3 -1 -1 -18 -11 -58 -23 -47 -27 26 -2 30 -1 37 1
17 2 -21 8 -38 13 -38z m140 31 c-6 -12 -8 -26 -5 -31 3 -6 1 -10 -4 -10 -6 0
-11 6 -11 14 0 8 -3 23 -6 33 -4 13 -3 14 4 5 7 -11 11 -10 16 4 3 9 9 14 12
11 3 -3 1 -15 -6 -26z m287 -11 c-3 -23 -1 -38 4 -34 5 3 9 -10 9 -29 0 -19 3
-49 7 -67 4 -24 3 -31 -5 -26 -7 4 -12 25 -12 47 0 22 -4 48 -9 57 -8 17 -3
92 6 92 3 0 3 -18 0 -40z m-450 -87 c-3 -10 -5 -4 -5 12 0 17 2 24 5 18 2 -7
2 -21 0 -30z m419 -1 c-18 -16 -19 -16 -12 1 3 10 6 24 6 30 0 8 4 7 12 -1 10
-10 8 -16 -6 -30z m-8 -67 c0 -14 -5 -25 -10 -25 -5 0 -6 -4 -3 -10 3 -5 2
-10 -4 -10 -26 0 -40 -32 -37 -87 1 -31 0 -51 -2 -45 -3 10 -7 10 -19 0 -14
-11 -15 -10 -7 12 5 14 8 42 6 63 -1 26 2 36 10 31 8 -5 9 -2 5 10 -4 9 -3 14
2 11 5 -3 12 -1 16 5 3 5 1 10 -5 10 -6 0 -5 11 5 30 19 37 43 39 43 5z m82
-60 c0 -7 20 -31 44 -52 25 -21 48 -51 52 -66 l7 -29 -32 16 c-17 9 -31 19
-31 22 0 2 9 0 20 -6 14 -7 20 -7 20 0 0 5 -4 10 -10 10 -5 0 -9 3 -9 8 3 20
-2 25 -12 12 -9 -13 -10 -13 -6 0 2 8 -7 25 -20 38 -24 22 -49 31 -38 12 4 -6
-1 -7 -11 -3 -11 4 -13 8 -6 11 7 2 12 11 12 20 0 14 -2 14 -9 3 -7 -10 -9 -7
-8 11 2 22 5 24 20 17 9 -5 17 -16 17 -24z m-79 -48 c-8 -8 -11 -7 -11 4 0 20
13 34 18 19 3 -7 -1 -17 -7 -23z m-21 13 c0 -5 -5 -10 -11 -10 -5 0 -7 5 -4
10 3 6 8 10 11 10 2 0 4 -4 4 -10z m-23 -52 c-3 -7 -5 -2 -5 12 0 14 2 19 5
13 2 -7 2 -19 0 -25z m183 -63 c12 7 120 -101 120 -119 0 -15 -24 -16 -37 -1
-4 4 -3 5 4 1 19 -10 24 10 6 25 -9 8 -19 13 -22 12 -3 -2 -6 3 -6 10 0 6 -9
20 -20 29 -17 14 -22 15 -31 3 -7 -9 -15 -10 -25 -4 -10 6 -11 9 -1 9 9 0 10
5 2 19 -5 11 -10 23 -9 28 0 4 3 2 6 -5 2 -6 9 -10 13 -7z m-271 -58 c0 -12
-4 -31 -8 -42 -6 -14 -8 -5 -7 27 1 25 4 44 9 41 4 -2 7 -14 6 -26z m-399 13
c0 -5 -5 -10 -11 -10 -5 0 -7 5 -4 10 3 6 8 10 11 10 2 0 4 -4 4 -10z m45 -8
c-3 -3 -11 0 -18 7 -9 10 -8 11 6 5 10 -3 15 -9 12 -12z m12 -34 c-3 -8 -6 -5
-6 6 -1 11 2 17 5 13 3 -3 4 -12 1 -19z m-1 -18 c9 0 14 -11 14 -31 0 -17 -4
-28 -10 -24 -5 3 -10 -1 -10 -9 0 -9 -4 -16 -10 -16 -15 0 -12 11 7 32 15 17
15 19 0 36 -10 10 -16 25 -16 33 1 9 3 7 6 -3 2 -10 11 -18 19 -18z m299 -18
c-10 -10 -16 -12 -13 -7 3 6 8 19 13 30 5 14 9 16 12 7 3 -8 -3 -21 -12 -30z
m-398 -34 c-3 -8 -6 -5 -6 6 -1 11 2 17 5 13 3 -3 4 -12 1 -19z m30 0 c-3 -8
-6 -5 -6 6 -1 11 2 17 5 13 3 -3 4 -12 1 -19z m27 7 c3 -8 1 -15 -4 -15 -6 0
-10 7 -10 15 0 8 2 15 4 15 2 0 6 -7 10 -15z m803 -27 c-3 -8 -6 -5 -6 6 -1
11 2 17 5 13 3 -3 4 -12 1 -19z m53 -183 c-8 -15 -9 -16 -5 -2 3 10 2 31 -2
45 l-7 27 -8 -25 c-5 -17 -6 -10 -3 20 4 32 2 41 -5 30 -9 -13 -10 -13 -10 0
0 12 -2 13 -9 1 -6 -9 -8 -4 -7 16 5 63 19 57 43 -18 19 -57 22 -78 13 -94z
m-767 148 c-7 -2 -19 -2 -25 0 -7 3 -2 5 12 5 14 0 19 -2 13 -5z m5 -133 c7 0
12 -5 12 -10 0 -16 -31 3 -60 37 l-25 28 31 -27 c16 -16 35 -28 42 -28z m-65
0 c15 -16 27 -38 26 -47 0 -14 -2 -13 -9 5 -11 25 -16 27 -26 10 -4 -7 -3 -8
4 -4 8 5 10 1 5 -10 -5 -14 -10 -10 -24 22 -29 65 -20 74 24 24z m100 -112
c10 -16 14 -28 10 -28 -5 0 -16 14 -26 32 -14 25 -20 29 -27 18 -7 -12 -9 -10
-8 5 0 11 -3 29 -7 40 -10 23 31 -24 58 -67z m8 60 c11 -11 19 -26 19 -31 0
-6 -1 -8 -2 -6 -2 2 -14 16 -27 32 -14 15 -21 27 -16 27 4 0 16 -10 26 -22z
m-80 -65 c-12 -20 -14 -14 -5 12 4 9 9 14 11 11 3 -2 0 -13 -6 -23z m152 -6
c-3 -4 3 -17 13 -28 9 -10 15 -21 13 -23 -2 -1 -16 11 -31 28 -23 28 -24 32
-8 32 10 0 16 -4 13 -9z m-99 -33 c3 -8 2 -12 -4 -9 -6 3 -10 10 -10 16 0 14
7 11 14 -7z m67 -24 c-5 -3 -10 -12 -13 -20 -3 -8 -5 2 -5 22 1 31 3 34 13 20
7 -9 9 -19 5 -22z m63 -76 c3 -8 2 -12 -4 -9 -6 3 -10 10 -10 16 0 14 7 11 14
-7z m114 -28 c-7 -8 -15 -12 -17 -11 -5 6 10 25 20 25 5 0 4 -6 -3 -14z m-241
-58 c-3 -8 -6 -5 -6 6 -1 11 2 17 5 13 3 -3 4 -12 1 -19z m20 -50 c-3 -8 -6
-5 -6 6 -1 11 2 17 5 13 3 -3 4 -12 1 -19z m-204 -281 c-4 -7 -8 -18 -8 -26 0
-27 -25 -24 -25 3 0 17 5 26 16 26 9 0 12 5 8 12 -4 7 -3 8 5 4 6 -4 8 -13 4
-19z m218 -70 c-10 -9 -11 -8 -5 6 3 10 9 15 12 12 3 -3 0 -11 -7 -18z m-234
-14 c-4 -3 -1 -13 6 -22 11 -14 10 -14 -5 -2 -16 12 -16 31 -1 31 4 0 3 -3 0
-7z m38 -43 c3 -5 1 -10 -4 -10 -6 0 -11 5 -11 10 0 6 2 10 4 10 3 0 8 -4 11
-10z m-5 -56 c0 -3 -6 -1 -13 5 -8 6 -18 7 -22 3 -5 -4 -5 -1 -1 6 4 6 2 12
-4 12 -6 0 -8 5 -5 11 7 10 45 -21 45 -37z m1017 40 c-3 -3 -12 -4 -19 -1 -8
3 -5 6 6 6 11 1 17 -2 13 -5z m-972 -16 c5 4 5 1 1 -6 -6 -10 -11 -10 -22 -1
-8 6 -14 14 -14 16 0 3 6 0 13 -6 8 -6 18 -7 22 -3z m112 -14 c-3 -3 -12 -4
-19 -1 -8 3 -5 6 6 6 11 1 17 -2 13 -5z m143 -1 c-19 -3 -39 -9 -44 -14 -6 -5
-15 -9 -20 -9 -6 0 -2 7 8 15 11 8 36 14 55 13 l36 -1 -35 -4z m87 1 c-3 -3
-12 -4 -19 -1 -8 3 -5 6 6 6 11 1 17 -2 13 -5z m-280 -10 c-3 -3 -12 -4 -19
-1 -8 3 -5 6 6 6 11 1 17 -2 13 -5z m100 0 c-3 -3 -12 -4 -19 -1 -8 3 -5 6 6
6 11 1 17 -2 13 -5z m-67 -14 c-8 -5 -19 -10 -25 -10 -5 0 -3 5 5 10 8 5 20
10 25 10 6 0 3 -5 -5 -10z m307 -6 c-3 -3 -12 -4 -19 -1 -8 3 -5 6 6 6 11 1
17 -2 13 -5z m412 -3 c8 -5 -5 -7 -35 -4 -27 3 -51 7 -53 9 -9 8 75 3 88 -5z
m-483 -13 c4 -6 3 -8 -4 -4 -5 3 -13 0 -15 -6 -3 -8 -6 -6 -6 5 -1 19 14 23
25 5z m662 -5 c-10 -2 -28 -2 -40 0 -13 2 -5 4 17 4 22 1 32 -1 23 -4z m95
-10 c-7 -2 -21 -2 -30 0 -10 3 -4 5 12 5 17 0 24 -2 18 -5z m64 -9 c-3 -3 -12
-4 -19 -1 -8 3 -5 6 6 6 11 1 17 -2 13 -5z m-737 -24 c8 -5 11 -10 5 -10 -5 0
-17 5 -25 10 -8 5 -10 10 -5 10 6 0 17 -5 25 -10z m909 -5 c11 -6 10 -9 0 -16
-8 -5 -18 -9 -24 -9 -5 0 -3 5 5 10 8 5 11 10 5 10 -58 4 -98 9 -102 14 -9 8
102 0 116 -9z m38 -29 c0 -8 -6 -12 -14 -9 -7 3 -19 1 -26 -3 -7 -5 -4 -1 6 9
23 21 34 22 34 3z m-17 -52 c0 -8 -5 -12 -10 -9 -6 4 -8 11 -5 16 9 14 15 11
15 -7z m-40 -183 c0 -6 -128 -9 -332 -8 l-333 1 325 6 c179 3 328 6 333 8 4 1
7 -2 7 -7z"/>
<path d="M10123 3568 c-23 -30 -24 -41 -2 -21 12 12 20 25 17 28 -3 3 -10 0
-15 -7z"/>
<path d="M10580 2920 c0 -5 5 -10 11 -10 5 0 7 5 4 10 -3 6 -8 10 -11 10 -2 0
-4 -4 -4 -10z"/>
<path d="M8753 4011 c-60 -28 -79 -64 -75 -140 2 -20 4 -22 17 -11 9 7 18 10
22 7 3 -4 12 -2 19 4 23 19 40 3 86 -84 34 -63 44 -91 40 -115 -7 -53 18 -78
109 -107 45 -14 84 -23 87 -20 3 3 -4 18 -16 33 -50 61 -65 110 -60 196 8 134
-24 203 -114 240 -48 20 -64 20 -115 -3z"/>
<path d="M4583 3903 c-21 -8 -15 -22 7 -16 11 3 20 9 20 14 0 10 -8 10 -27 2z"/>
<path d="M7908 3903 c6 -2 18 -2 25 0 6 3 1 5 -13 5 -14 0 -19 -2 -12 -5z"/>
<path d="M7981 3863 c26 -51 22 -77 -14 -81 -21 -3 -29 2 -36 20 -8 18 -10 11
-10 -34 -1 -72 15 -91 96 -113 32 -9 89 -27 126 -41 38 -13 75 -24 82 -24 22
0 47 45 49 90 3 47 -9 51 -31 11 l-17 -28 -73 24 c-64 22 -75 29 -88 58 -7 19
-25 51 -39 72 -14 21 -26 48 -26 60 0 16 -6 23 -19 23 -18 0 -18 -1 0 -37z"/>
<path d="M4468 3883 c6 -2 18 -2 25 0 6 3 1 5 -13 5 -14 0 -19 -2 -12 -5z"/>
<path d="M4781 3858 c-6 -17 -29 -56 -52 -85 l-40 -54 23 -20 c49 -42 72 -49
104 -33 37 19 54 41 54 71 0 16 -6 23 -19 23 -11 0 -29 12 -41 27 -17 21 -20
35 -15 65 8 46 1 49 -14 6z"/>
<path d="M5015 3870 c-18 -8 -17 -9 8 -9 15 -1 27 4 27 9 0 12 -8 12 -35 0z"/>
<path d="M7735 3870 c3 -5 10 -10 16 -10 5 0 9 5 9 10 0 6 -7 10 -16 10 -8 0
-12 -4 -9 -10z"/>
<path d="M7840 3868 c14 -6 37 -17 52 -24 22 -10 28 -9 32 2 6 17 -2 20 -64
28 -39 4 -42 4 -20 -6z"/>
<path d="M8245 3860 c3 -5 10 -10 16 -10 5 0 9 5 9 10 0 6 -7 10 -16 10 -8 0
-12 -4 -9 -10z"/>
<path d="M8385 3860 c3 -5 12 -7 20 -3 21 7 19 13 -6 13 -11 0 -18 -4 -14 -10z"/>
<path d="M9240 3863 c0 -5 14 -22 30 -38 17 -16 30 -34 30 -41 0 -17 17 -27
30 -19 8 5 7 12 -2 23 -11 13 -11 14 2 10 26 -8 23 -52 -5 -82 -42 -45 -31
-130 23 -179 18 -17 34 -18 152 -14 72 3 134 8 137 10 12 12 -41 87 -100 143
-51 49 -68 72 -79 110 -12 45 -17 49 -57 61 -60 17 -161 28 -161 16z"/>
<path d="M3505 3855 c-5 -2 -44 -11 -85 -20 -68 -14 -75 -18 -76 -40 -1 -14 2
-25 7 -25 5 0 9 -21 9 -46 0 -42 -5 -50 -56 -104 -42 -45 -54 -63 -49 -79 5
-16 14 -20 53 -19 26 1 57 -2 69 -6 30 -9 55 20 79 92 10 31 21 61 26 66 4 5
-2 20 -12 34 -11 14 -20 33 -20 42 0 23 26 44 44 37 8 -3 20 0 26 8 19 23 97
48 130 42 35 -7 41 8 8 17 -24 6 -136 7 -153 1z"/>
<path d="M4867 3849 c8 -8 16 -8 30 0 16 9 14 10 -11 11 -22 0 -27 -3 -19 -11z"/>
<path d="M9912 3853 c-15 -6 -6 -23 12 -23 7 0 21 7 32 15 18 14 18 14 -6 14
-14 0 -31 -3 -38 -6z"/>
<path d="M2762 3821 c-10 -6 -6 -10 15 -14 32 -6 38 -3 28 12 -7 13 -25 14
-43 2z"/>
<path d="M4115 3810 c-3 -5 -1 -10 4 -10 6 0 11 5 11 10 0 6 -2 10 -4 10 -3 0
-8 -4 -11 -10z"/>
<path d="M4067 3803 c-13 -12 -7 -23 13 -23 11 0 20 7 20 15 0 15 -21 21 -33
8z"/>
<path d="M9170 3800 c0 -5 16 -10 35 -10 19 0 35 5 35 10 0 6 -16 10 -35 10
-19 0 -35 -4 -35 -10z"/>
<path d="M8682 3668 l4 -133 50 -3 c49 -3 50 -2 63 34 15 42 3 66 -23 45 -26
-22 -54 3 -62 57 -3 26 -11 52 -16 59 -5 7 -7 26 -3 43 4 20 3 30 -5 30 -8 0
-10 -37 -8 -132z"/>
<path d="M8720 3784 c0 -11 5 -14 16 -10 9 3 20 6 25 6 5 0 9 5 9 10 0 6 -11
10 -25 10 -16 0 -25 -6 -25 -16z"/>
<path d="M9895 3791 c-3 -5 -1 -12 5 -16 5 -3 10 1 10 9 0 18 -6 21 -15 7z"/>
<path d="M3610 3770 c0 -5 9 -10 20 -10 11 0 20 5 20 10 0 6 -9 10 -20 10 -11
0 -20 -4 -20 -10z"/>
<path d="M3482 3759 c2 -6 8 -10 13 -10 5 0 11 4 13 10 2 6 -4 11 -13 11 -9 0
-15 -5 -13 -11z"/>
<path d="M3833 3720 c-37 -42 -41 -51 -36 -86 4 -38 3 -40 -42 -63 -50 -27
-90 -70 -100 -112 -5 -22 0 -29 32 -52 45 -31 58 -34 49 -11 -19 50 28 129 84
140 34 7 86 61 96 100 5 17 1 37 -11 56 -9 17 -20 40 -24 53 -6 21 -8 20 -48
-25z"/>
<path d="M8414 3693 c3 -21 11 -81 16 -133 6 -52 17 -117 25 -145 19 -66 78
-170 96 -170 8 0 12 7 10 15 -11 44 -9 80 5 80 8 0 13 6 12 13 -2 7 6 11 20
10 26 -3 27 12 12 121 -14 94 -33 131 -79 149 -20 9 -54 34 -74 56 -20 23 -40
41 -43 41 -3 0 -3 -17 0 -37z"/>
<path d="M9170 3694 c0 -8 5 -12 10 -9 6 3 10 10 10 16 0 5 -4 9 -10 9 -5 0
-10 -7 -10 -16z"/>
<path d="M4113 3671 c7 -35 -19 -66 -43 -51 -21 14 -40 12 -40 -3 0 -11 129
-71 137 -63 2 2 -15 104 -23 134 -2 6 -11 12 -20 12 -13 0 -15 -6 -11 -29z"/>
<path d="M4666 3691 c-4 -7 -5 -15 -2 -18 9 -9 19 4 14 18 -4 11 -6 11 -12 0z"/>
<path d="M4585 3651 c-54 -9 -87 -33 -116 -83 -21 -37 -24 -58 -26 -148 -2
-58 -7 -134 -13 -170 -5 -36 -10 -70 -10 -76 0 -6 -27 -21 -60 -33 -98 -36
-128 -102 -95 -212 18 -57 18 -64 2 -132 -20 -84 -22 -139 -6 -170 24 -44 60
-50 77 -12 6 14 19 25 27 25 13 0 12 6 -5 39 -16 33 -20 63 -22 168 l-3 128
35 59 c32 52 35 55 38 32 2 -15 -4 -50 -12 -80 -42 -143 6 -259 99 -242 38 8
43 17 19 37 -37 31 -56 106 -40 157 5 15 24 31 51 42 42 18 42 19 49 82 4 34
16 99 26 143 10 44 23 111 28 149 13 83 35 110 113 136 41 14 55 24 57 40 7
41 -18 78 -66 100 -54 26 -92 31 -147 21z"/>
<path d="M6035 3613 c-36 -193 -199 -525 -279 -568 -41 -22 -57 -54 -91 -182
-13 -51 -37 -119 -53 -150 -28 -58 -28 -58 -12 -106 l17 -48 37 76 c34 70 42
77 107 116 74 45 100 79 80 111 -13 22 -3 84 18 101 9 8 26 17 38 20 27 6 31
-5 32 -90 1 -61 -17 -101 -40 -88 -5 4 -9 1 -9 -5 0 -17 29 -24 45 -10 27 23
258 343 264 368 11 40 -7 155 -39 256 -17 51 -33 115 -37 141 -4 33 -14 56
-31 72 -33 31 -39 29 -47 -14z"/>
<path d="M6772 3634 c-19 -13 -23 -23 -20 -58 2 -22 8 -40 13 -38 13 4 36 72
33 95 -3 16 -5 17 -26 1z"/>
<path d="M2526 3477 c-8 -7 -22 -39 -30 -72 -15 -60 -39 -285 -32 -293 3 -2
10 6 16 18 14 27 121 96 160 105 27 6 30 10 30 47 0 95 -99 229 -144 195z"/>
<path d="M3555 3480 c3 -5 13 -10 21 -10 8 0 12 5 9 10 -3 6 -13 10 -21 10 -8
0 -12 -4 -9 -10z"/>
<path d="M8075 3479 c-4 -6 -5 -12 -2 -15 2 -3 7 2 10 11 7 17 1 20 -8 4z"/>
<path d="M6746 3388 c-10 -104 -53 -311 -73 -354 -18 -36 -18 -36 7 -55 14
-10 32 -25 41 -34 18 -17 43 -110 34 -125 -8 -13 32 -60 51 -60 7 0 26 -12 43
-26 l31 -25 -14 39 c-11 29 -11 43 -3 51 19 19 24 13 32 -41 12 -82 15 -144 6
-130 -5 8 -8 1 -8 -17 0 -28 2 -29 14 -13 14 16 14 15 8 -3 -4 -11 -8 -29 -10
-40 -1 -11 -4 -22 -5 -25 -4 -8 -6 -57 -9 -177 -3 -107 -6 -118 -33 -114 -4 0
-5 -6 -1 -15 5 -13 7 -13 14 -2 19 28 27 -13 14 -64 -13 -47 -13 -49 7 -42 19
6 20 3 15 -27 -14 -83 -28 -227 -25 -259 l3 -35 94 1 c108 2 111 4 136 89 24
82 46 245 43 310 l-3 60 -75 3 c-101 3 -106 6 -82 39 11 16 23 39 26 53 5 17
4 21 -2 11 -14 -20 -25 4 -12 28 5 11 10 26 9 33 0 7 -11 -9 -23 -37 -13 -27
-21 -53 -19 -57 2 -5 -1 -8 -6 -8 -6 0 -11 -6 -11 -14 0 -7 -6 -19 -13 -25
-11 -9 -12 0 -5 52 11 74 5 204 -13 268 -11 42 -11 49 10 82 16 26 36 41 74
55 75 28 76 54 4 124 -113 111 -171 229 -229 468 -16 69 -31 126 -33 128 -1 1
-5 -30 -9 -70z m251 -1050 c-3 -8 -6 -5 -6 6 -1 11 2 17 5 13 3 -3 4 -12 1
-19z m-77 -192 c0 -2 -7 -7 -16 -10 -8 -3 -12 -2 -9 4 6 10 25 14 25 6z"/>
<path d="M4708 3423 c-27 -7 -22 -23 7 -23 16 0 25 6 25 15 0 15 -2 16 -32 8z"/>
<path d="M4763 3313 c-15 -5 -17 -23 -4 -23 5 0 11 7 15 15 3 8 4 15 3 14 -1
0 -8 -3 -14 -6z"/>
<path d="M9773 3187 c0 -85 3 -127 10 -124 6 2 13 9 15 17 3 7 0 10 -7 6 -6
-4 -11 -1 -11 8 0 26 25 23 46 -6 13 -17 20 -39 18 -56 -4 -27 -4 -27 4 -2 6
19 1 39 -20 81 -15 31 -30 76 -33 100 -12 112 -22 101 -22 -24z"/>
<path d="M4740 3213 c-14 -7 -20 -13 -15 -13 6 0 3 -5 -5 -10 -13 -8 -13 -11
-1 -22 10 -10 12 -10 7 0 -4 7 -2 12 6 12 12 0 44 39 36 44 -2 2 -14 -3 -28
-11z"/>
<path d="M8200 3217 c-16 -8 -27 -24 -31 -47 -9 -41 3 -60 37 -60 28 0 64 -32
64 -57 0 -10 8 -31 19 -46 10 -16 16 -38 13 -52 -6 -35 20 -41 66 -15 108 61
108 211 2 267 -49 26 -129 31 -170 10z"/>
<path d="M4677 3214 c7 -3 9 -13 6 -22 -6 -14 -5 -15 9 -2 16 15 7 31 -17 29
-5 0 -5 -3 2 -5z"/>
<path d="M4760 3190 c0 -5 5 -10 11 -10 5 0 7 5 4 10 -3 6 -8 10 -11 10 -2 0
-4 -4 -4 -10z"/>
<path d="M4681 3166 c13 -14 121 -75 110 -63 -6 8 -8 16 -5 20 3 3 1 14 -6 24
-10 16 -10 16 -5 -4 4 -14 2 -23 -4 -23 -6 0 -11 4 -11 8 0 4 -15 14 -32 22
-18 7 -37 16 -43 18 -5 3 -7 2 -4 -2z"/>
<path d="M4745 3160 c3 -5 8 -10 11 -10 2 0 4 5 4 10 0 6 -5 10 -11 10 -5 0
-7 -4 -4 -10z"/>
<path d="M8590 3081 l0 -88 -45 -5 c-76 -9 -74 -5 -68 -216 l6 -187 58 -180
c33 -99 62 -202 65 -228 7 -47 7 -47 26 -30 19 17 20 28 14 248 -13 439 -15
720 -6 730 5 7 -2 17 -21 27 l-29 17 0 -88z"/>
<path d="M7534 3141 c-29 -13 -74 -69 -74 -92 0 -22 39 -103 46 -96 3 2 -1 16
-7 31 -7 14 -9 29 -6 32 12 13 35 -17 57 -74 27 -69 89 -132 130 -132 58 0
120 83 120 160 0 53 -31 112 -76 147 -30 23 -48 28 -103 30 -36 2 -75 -1 -87
-6z"/>
<path d="M6243 3120 c-64 -26 -68 -148 -10 -272 19 -43 25 -48 54 -48 18 0 36
-1 40 -2 4 -2 9 6 12 17 2 11 8 23 14 26 5 4 12 30 15 59 3 34 12 60 25 73 15
15 18 27 13 60 -8 49 -21 66 -63 84 -37 15 -68 16 -100 3z"/>
<path d="M5373 3095 c-44 -31 -48 -51 -48 -226 0 -144 -2 -169 -17 -186 -39
-42 -50 -101 -45 -235 4 -119 13 -158 37 -158 3 0 7 73 7 163 1 109 5 175 14
202 15 43 67 85 105 85 19 0 23 7 29 50 4 32 12 50 20 50 8 0 15 14 17 33 2
22 10 35 26 42 14 6 26 22 29 38 3 15 12 27 21 27 18 0 41 29 42 51 0 8 -14
28 -31 45 -27 26 -38 29 -107 32 -59 3 -82 -1 -99 -13z"/>
<path d="M10102 3080 c0 -14 2 -19 5 -12 2 6 2 18 0 25 -3 6 -5 1 -5 -13z"/>
<path d="M9811 3043 c-3 -66 -2 -76 6 -84 4 -4 8 18 8 51 0 65 -12 93 -14 33z"/>
<path d="M7060 3042 c-19 -11 -35 -25 -35 -32 0 -13 4 -16 57 -40 15 -7 31
-22 34 -33 10 -33 7 -118 -5 -130 -16 -16 -14 -47 3 -47 8 0 44 -16 80 -35 37
-19 77 -35 90 -35 54 0 72 74 41 176 -39 133 -176 224 -265 176z"/>
<path d="M8210 3050 c0 -5 5 -10 11 -10 5 0 7 5 4 10 -3 6 -8 10 -11 10 -2 0
-4 -4 -4 -10z"/>
<path d="M5218 3038 c-3 -8 -19 -11 -44 -10 -46 4 -97 -27 -123 -73 -9 -16
-19 -32 -24 -33 -4 -2 -5 -8 -1 -13 3 -5 -2 -12 -10 -15 -9 -3 -16 -12 -16
-18 0 -7 -16 -27 -35 -46 -34 -33 -50 -65 -20 -40 8 7 15 9 15 6 0 -4 14 10
32 29 26 31 33 34 40 21 5 -9 7 -20 3 -25 -3 -5 0 -11 7 -13 7 -3 13 -18 14
-34 1 -25 -5 -32 -36 -48 l-38 -18 34 -45 c19 -24 55 -83 81 -130 26 -46 66
-107 89 -133 l42 -49 6 80 c4 44 4 110 0 147 -6 61 -10 70 -46 103 l-40 36 21
41 c12 23 21 52 21 66 0 46 18 76 45 76 34 0 44 40 19 78 -10 15 -17 34 -16
44 3 19 -15 33 -20 16z"/>
<path d="M3746 2974 c-3 -26 -6 -68 -6 -94 0 -46 0 -46 30 -42 26 4 30 8 35
51 3 25 8 60 11 77 4 29 1 33 -27 43 -18 6 -33 11 -34 11 -1 0 -5 -21 -9 -46z"/>
<path d="M7051 2944 c0 -11 3 -14 6 -6 3 7 2 16 -1 19 -3 4 -6 -2 -5 -13z"/>
<path d="M3191 2845 c-81 -172 -133 -334 -171 -530 -13 -63 -32 -127 -45 -151
l-24 -41 73 1 c62 1 79 5 114 29 131 86 161 301 98 687 l-12 75 -33 -70z"/>
<path d="M4943 2887 c-24 -11 -43 -25 -43 -30 0 -5 7 -3 17 4 15 13 15 12 5
-8 -14 -26 -15 -43 -3 -43 18 0 73 60 68 74 -3 8 -1 17 6 20 7 2 8 4 2 5 -5 0
-29 -10 -52 -22z"/>
<path d="M5003 2820 c-11 -16 -10 -18 1 -14 8 3 17 -1 22 -8 4 -7 4 -10 -1 -6
-16 15 -45 -13 -45 -43 0 -29 0 -29 24 -13 16 10 23 21 19 31 -4 10 -2 14 5 9
17 -10 24 10 7 24 -7 6 -11 18 -8 26 8 21 -10 17 -24 -6z"/>
<path d="M6730 2765 c13 -14 26 -25 28 -25 3 0 -5 11 -18 25 -13 14 -26 25
-28 25 -3 0 5 -11 18 -25z"/>
<path d="M6740 2786 c0 -2 8 -10 18 -17 15 -13 16 -12 3 4 -13 16 -21 21 -21
13z"/>
<path d="M7605 2772 c-99 -42 -138 -77 -194 -171 l-32 -53 21 -23 c12 -13 41
-28 66 -35 24 -7 44 -15 44 -17 0 -3 -12 -34 -26 -70 -25 -63 -26 -69 -20
-211 4 -81 9 -208 11 -282 2 -74 14 -199 27 -278 l22 -143 53 2 53 2 1 151 c0
83 4 173 7 200 l7 50 28 -43 c16 -23 53 -86 84 -139 31 -53 77 -130 104 -170
47 -72 47 -72 26 -87 -12 -8 -29 -15 -37 -15 -34 0 -140 -42 -140 -56 0 -8 8
-14 18 -15 84 -4 280 16 296 31 4 5 -24 80 -62 167 -125 283 -151 347 -158
391 -6 38 -5 42 15 42 25 0 28 12 35 138 5 83 10 100 46 168 53 101 53 124 -5
164 -37 26 -45 36 -45 63 0 41 -24 121 -49 161 -53 85 -118 111 -196 78z"/>
<path d="M5480 2743 c8 -3 24 -13 35 -22 20 -16 20 -16 1 7 -11 12 -26 22 -35
21 -14 0 -14 -1 -1 -6z"/>
<path d="M6800 2746 c0 -3 9 -10 20 -16 11 -6 20 -8 20 -6 0 3 -9 10 -20 16
-11 6 -20 8 -20 6z"/>
<path d="M6660 2730 c-9 -6 -10 -10 -3 -10 6 0 15 5 18 10 8 12 4 12 -15 0z"/>
<path d="M6760 2713 c0 -12 5 -25 11 -28 17 -11 18 -2 4 25 -14 24 -14 24 -15
3z"/>
<path d="M6620 2705 c-7 -9 -10 -18 -7 -21 3 -3 10 4 17 15 13 25 8 27 -10 6z"/>
<path d="M6875 2677 c-9 -32 -5 -39 15 -27 11 7 11 14 3 32 l-11 23 -7 -28z"/>
<path d="M6800 2661 c0 -12 6 -21 15 -21 8 0 15 4 15 9 0 5 -7 14 -15 21 -13
10 -15 9 -15 -9z"/>
<path d="M6772 2599 c3 -95 18 -99 18 -5 0 47 -4 76 -11 76 -6 0 -9 -26 -7
-71z"/>
<path d="M6594 2645 c-3 -8 -4 -20 -2 -27 3 -7 7 -1 10 15 6 29 1 36 -8 12z"/>
<path d="M3718 2605 c-19 -11 -35 -36 -58 -97 -173 -447 -484 -761 -712 -718
-71 14 -128 13 -129 -2 -1 -7 -1 -35 1 -61 l2 -48 -39 0 c-21 1 -54 1 -74 1
-21 0 -46 -8 -59 -18 -19 -15 -21 -22 -11 -40 6 -12 7 -23 2 -26 -5 -3 -7 -15
-4 -25 3 -12 -7 -33 -29 -57 -19 -22 -42 -51 -51 -66 -20 -32 -53 -55 -105
-74 -32 -11 51 -13 570 -14 511 0 607 2 602 14 -6 16 15 39 68 72 26 17 38 31
38 47 0 13 7 32 15 43 8 10 15 27 15 36 0 22 38 32 91 25 38 -5 39 -4 39 24 0
19 8 34 24 44 34 22 261 40 345 27 l64 -9 -7 129 c-4 70 -9 134 -12 142 -7 19
-144 28 -256 16 -51 -5 -113 -12 -138 -14 -25 -3 -66 -8 -92 -12 l-48 -7 0
342 c0 367 2 355 -52 326z"/>
<path d="M5662 2543 c-17 -82 -23 -157 -14 -188 6 -23 11 0 20 100 6 71 10
131 8 133 -2 2 -9 -18 -14 -45z"/>
<path d="M6481 2554 c-3 -54 23 -241 35 -258 18 -26 18 -46 1 -21 -11 14 -16
15 -22 5 -5 -9 -4 -11 3 -6 8 5 12 0 12 -13 0 -24 16 -36 26 -20 5 8 8 8 13 0
12 -19 181 118 181 146 0 7 5 13 10 13 6 0 10 7 10 15 0 8 4 15 9 15 5 0 13 9
16 20 9 29 21 25 33 -12 l10 -33 1 36 c1 32 -3 37 -24 41 -18 4 -25 1 -25 -10
0 -12 -9 -13 -49 -8 -63 8 -78 1 -97 -43 -12 -29 -17 -33 -25 -21 -7 11 -8 8
-4 -10 4 -18 0 -31 -14 -44 -19 -17 -20 -15 -59 106 -22 68 -40 114 -41 102z"/>
<path d="M4905 2450 c-4 -63 -5 -172 -3 -242 1 -69 0 -124 -3 -122 -4 2 -12
-3 -18 -10 -12 -14 -1 -251 18 -416 6 -50 4 -80 -9 -127 -9 -34 -13 -60 -9
-57 4 2 2 -8 -6 -23 -8 -15 -15 -38 -15 -50 0 -21 -5 -23 -57 -24 -32 -1 -69
-5 -83 -10 -18 -6 -12 -7 24 -4 27 3 162 5 300 5 226 1 249 2 231 16 -11 8
-30 17 -42 19 -13 3 -34 7 -48 10 -17 4 -25 12 -25 28 0 12 -2 89 -5 171 l-6
148 33 67 c18 36 35 77 39 91 5 18 6 14 4 -13 -2 -21 -10 -46 -19 -56 -20 -22
-8 -39 29 -43 28 -3 30 -1 27 27 -3 29 -3 29 12 10 9 -12 15 -15 16 -7 0 7 5
10 10 7 12 -7 3 -46 -12 -56 -6 -4 -6 -9 1 -13 6 -4 11 -4 11 1 0 4 72 6 160
4 l160 -3 0 211 c0 116 1 214 3 219 1 4 -62 8 -140 10 -120 2 -142 0 -137 -12
10 -26 -18 -30 -38 -5 l-19 24 5 -25 c5 -22 4 -22 -8 4 -9 20 -15 25 -19 15
-3 -10 -8 -6 -15 11 -9 21 -11 22 -11 6 -1 -11 9 -30 21 -43 12 -13 16 -23 10
-23 -7 0 -12 5 -12 10 0 6 -5 10 -11 10 -6 0 -8 -7 -5 -16 3 -9 2 -12 -5 -9
-6 4 -8 13 -5 21 14 36 -26 95 -108 159 -81 63 -152 132 -193 190 l-21 29 -7
-114z m400 -429 c0 -83 -4 -153 -8 -157 -4 -4 -7 63 -7 149 0 87 3 157 8 157
4 0 7 -67 7 -149z m-78 97 c-3 -8 -6 -5 -6 6 -1 11 2 17 5 13 3 -3 4 -12 1
-19z m23 -51 c0 -5 -4 -5 -10 -2 -5 3 -10 14 -10 23 0 15 2 15 10 2 5 -8 10
-19 10 -23z m-3 -189 c-3 -8 -6 -5 -6 6 -1 11 2 17 5 13 3 -3 4 -12 1 -19z
m-295 -225 c-3 -16 -7 -22 -10 -15 -4 13 4 42 11 42 2 0 2 -12 -1 -27z m-12
-44 c0 -6 -4 -7 -10 -4 -5 3 -10 11 -10 16 0 6 5 7 10 4 6 -3 10 -11 10 -16z
m-40 -106 c-11 -17 -11 -17 -6 0 3 10 6 24 7 30 0 9 2 9 5 0 3 -7 0 -20 -6
-30z"/>
<path d="M7270 2450 c-1 -58 -5 -147 -8 -198 -7 -96 -1 -148 11 -101 4 13 11
87 17 164 9 115 8 149 -4 190 l-14 50 -2 -105z"/>
<path d="M6572 2520 c0 -14 2 -19 5 -12 2 6 2 18 0 25 -3 6 -5 1 -5 -13z"/>
<path d="M5611 2494 c0 -11 3 -14 6 -6 3 7 2 16 -1 19 -3 4 -6 -2 -5 -13z"/>
<path d="M6575 2469 c-4 -6 -5 -12 -2 -15 2 -3 7 2 10 11 7 17 1 20 -8 4z"/>
<path d="M5605 2450 c3 -5 8 -10 11 -10 2 0 4 5 4 10 0 6 -5 10 -11 10 -5 0
-7 -4 -4 -10z"/>
<path d="M6750 2280 c0 -22 5 -40 10 -40 6 0 10 18 10 40 0 22 -4 40 -10 40
-5 0 -10 -18 -10 -40z"/>
<path d="M6665 2290 c-10 -11 -16 -22 -13 -25 3 -3 13 4 23 15 10 11 16 22 13
25 -3 3 -13 -4 -23 -15z"/>
<path d="M5652 2220 c0 -19 2 -27 5 -17 2 9 2 25 0 35 -3 9 -5 1 -5 -18z"/>
<path d="M6129 2223 c-7 -19 -9 -114 -4 -300 l7 -272 37 -3 36 -3 3 -105 3
-105 -43 -33 -42 -32 175 0 174 1 -35 29 c-26 22 -45 29 -72 28 -20 -1 -35 -5
-32 -10 3 -4 2 -8 -3 -8 -4 0 -8 42 -9 93 -1 60 1 78 6 52 6 -39 6 -39 12 -10
3 17 3 5 1 -25 -2 -30 1 -62 7 -70 7 -11 10 15 10 88 l0 102 40 0 40 0 0 103
c0 56 3 193 7 305 l6 202 -36 -15 c-47 -19 -162 -19 -217 0 -56 20 -59 19 -71
-12z m181 -709 l0 -126 -22 14 c-21 14 -23 24 -26 127 l-3 111 26 0 25 0 0
-126z"/>
<path d="M6800 2236 c0 -2 7 -9 15 -16 9 -7 15 -8 15 -2 0 5 -7 12 -15 16 -8
3 -15 4 -15 2z"/>
<path d="M6640 2220 c0 -12 87 -13 94 -1 3 4 -17 9 -44 10 -28 0 -50 -4 -50
-9z"/>
<path d="M6530 2201 c0 -11 4 -22 9 -25 4 -3 6 6 3 19 -5 30 -12 33 -12 6z"/>
<path d="M6840 2197 c0 -22 -22 -27 -141 -31 -113 -4 -143 -11 -135 -32 3 -8
3 -14 0 -14 -2 0 -9 10 -14 23 -7 17 -9 11 -9 -32 -1 -43 2 -52 14 -47 8 3 15
1 15 -4 0 -6 -6 -10 -12 -10 -7 0 -5 -5 5 -11 15 -9 17 -26 17 -134 l0 -123
66 -8 c66 -7 186 0 204 11 9 5 3 415 -6 424 -2 2 -4 -3 -4 -12z"/>
<path d="M8097 2019 c-54 -83 -80 -194 -80 -349 0 -166 32 -246 114 -287 43
-21 55 -22 439 -23 217 -1 405 -1 416 -1 35 2 37 39 5 101 -15 30 -31 70 -34
88 -6 28 -4 32 14 32 31 0 82 -56 76 -82 -8 -31 27 -93 67 -118 25 -15 48 -20
78 -18 l43 3 -60 66 c-33 37 -72 87 -87 112 -21 36 -35 48 -68 58 -31 9 -43
10 -52 1 -9 -9 -17 -3 -33 26 -20 36 -22 37 -80 38 -33 0 -91 6 -130 11 -41 7
-105 8 -155 4 -47 -4 -86 -7 -88 -6 -1 1 2 15 8 31 5 16 14 58 19 94 l9 65
-40 35 c-31 27 -41 44 -45 77 -7 50 -9 51 -189 60 -131 6 -132 6 -147 -18z"/>
<path d="M2163 2010 c-18 -7 -23 -17 -23 -48 0 -36 -15 -136 -26 -175 -5 -16
-1 -17 33 -12 76 13 73 9 73 93 0 95 -9 152 -24 151 -6 0 -21 -4 -33 -9z"/>
<path d="M5181 1785 c0 -35 1 -37 10 -17 6 15 5 30 -1 40 -7 13 -9 8 -9 -23z"/>
<path d="M5177 1733 c-12 -11 -8 -41 6 -46 8 -3 12 5 12 24 0 29 -5 35 -18 22z"/>
<path d="M5183 1570 c0 -36 2 -50 4 -32 2 17 2 47 0 65 -2 17 -4 3 -4 -33z"/>
<path d="M2518 1583 c-8 -10 -15 -26 -15 -36 0 -10 3 -14 6 -10 4 4 17 20 30
36 19 20 21 27 9 27 -8 0 -22 -8 -30 -17z"/>
<path d="M2472 1490 c-6 -11 -12 -28 -12 -37 0 -15 -2 -16 -10 -3 -5 8 -11 12
-14 9 -11 -10 11 -29 27 -23 15 5 22 23 18 47 0 4 4 7 9 7 6 0 10 5 10 10 0
16 -14 11 -28 -10z"/>
<path d="M10253 1465 c0 -22 2 -30 4 -17 2 12 2 30 0 40 -3 9 -5 -1 -4 -23z"/>
<path d="M5180 1450 c0 -11 4 -20 9 -20 5 0 7 9 4 20 -3 11 -7 20 -9 20 -2 0
-4 -9 -4 -20z"/>
<path d="M7443 1415 c-98 -52 -93 -55 85 -55 l123 0 -3 28 c-3 24 -8 27 -43
30 -22 2 -49 12 -60 22 -20 18 -22 17 -102 -25z"/>
<path d="M11447 1446 c-8 -19 50 -55 97 -61 20 -3 36 -3 36 -1 0 4 -116 76
-123 76 -3 0 -7 -7 -10 -14z"/>
<path d="M2397 1439 c-9 -6 -15 -14 -12 -18 2 -5 -5 -17 -18 -27 l-22 -19 19
23 c11 12 14 22 8 22 -6 0 -20 -13 -32 -30 -20 -29 -21 -30 -2 -30 10 0 27 9
37 20 10 11 26 22 35 25 10 3 17 12 16 20 -3 22 -9 25 -29 14z"/>
<path d="M7158 1426 c-27 -14 -50 -21 -53 -16 -4 6 -16 10 -29 10 -12 0 -27 5
-34 12 -9 9 -17 7 -35 -10 -16 -15 -36 -22 -63 -22 -21 -1 -52 -7 -69 -15 -27
-12 -10 -13 158 -14 l187 -1 -1 23 c0 12 -4 30 -7 40 -7 17 -11 16 -54 -7z"/>
<path d="M5769 1433 c-1 -2 -2 -16 -3 -33 l-1 -30 163 0 c89 0 162 2 162 5 0
2 -23 16 -52 31 -46 23 -56 25 -90 15 -27 -9 -44 -9 -58 -1 -16 9 -20 8 -20
-5 0 -19 -16 -20 -27 -1 -7 11 -71 28 -74 19z"/>
<path d="M6771 1416 c-30 -19 -41 -21 -75 -13 -60 13 -91 10 -133 -12 l-38
-20 148 -1 147 0 0 29 c0 40 -9 43 -49 17z"/>
<path d="M5228 1423 c6 -2 18 -2 25 0 6 3 1 5 -13 5 -14 0 -19 -2 -12 -5z"/>
<path d="M5434 1401 l1 -31 125 0 c113 1 123 2 100 15 -14 8 -50 14 -82 15
-31 0 -58 4 -60 10 -1 5 -22 12 -44 16 -41 6 -41 6 -40 -25z"/>
</g>
</svg>
